<svg width="36" height="36" viewBox="0 0 36 36" fill="none" xmlns="http://www.w3.org/2000/svg">
<path fill-rule="evenodd" clip-rule="evenodd" d="M18 36C27.945 36 36 27.945 36 18C36 8.055 27.945 0 18 0C8.055 0 0 8.055 0 18C0 27.945 8.055 36 18 36ZM22.5339 9.76452C21.45 9.69677 21.1113 9.69677 18.3 9.69677C15.4887 9.69677 15.15 9.69677 14.1 9.73065C13.05 9.79839 12.5081 9.96774 12.1355 10.1032C11.6274 10.2726 11.2887 10.5097 10.9161 10.8823C10.5435 11.2548 10.3403 11.6274 10.1371 12.1016C9.96774 12.4742 9.79839 13.05 9.76452 14.0661C9.69677 15.15 9.69677 15.4887 9.69677 18.3C9.69677 21.1113 9.69677 21.45 9.73065 22.5677C9.79839 23.6177 9.96774 24.1597 10.1032 24.5323C10.2726 25.0403 10.5097 25.379 10.8823 25.7516C11.2548 26.1242 11.6274 26.3274 12.1016 26.5306C12.4742 26.7 13.05 26.8694 14.0661 26.9032C15.15 26.971 15.4887 26.971 18.3 26.971C20.5777 26.971 21.2101 26.9487 21.9626 26.9223L21.9631 26.9223L21.9634 26.9223C22.1394 26.9161 22.322 26.9096 22.5339 26.9032C23.5839 26.8355 24.1258 26.6661 24.4984 26.5306C25.0065 26.3613 25.3452 26.1242 25.7177 25.7516C26.0903 25.379 26.2935 25.0065 26.4968 24.5323C26.6661 24.1597 26.8355 23.5839 26.8694 22.5677C26.9371 21.4839 26.9371 21.1452 26.9371 18.3339C26.9371 16.0562 26.9149 15.4237 26.8884 14.6713C26.8822 14.495 26.8758 14.3121 26.8694 14.1C26.8016 13.05 26.6323 12.5081 26.4968 12.1355C26.3274 11.6274 26.0903 11.2887 25.7177 10.9161C25.3452 10.5435 24.9726 10.3403 24.4984 10.1371C24.1258 9.96774 23.55 9.79839 22.5339 9.76452ZM13.9645 7.86774C15.0823 7.8 15.4548 7.8 18.3 7.8C21.1452 7.8 21.5177 7.8 22.6355 7.86774C23.7532 7.90161 24.4984 8.07097 25.1758 8.34194C25.8532 8.6129 26.4629 8.98548 27.0387 9.56129C27.6145 10.1371 27.9871 10.7468 28.2581 11.4242C28.4952 12.0677 28.6645 12.8468 28.7323 13.9645C28.8 15.0823 28.8 15.4548 28.8 18.3C28.8 21.1452 28.8 21.5177 28.7323 22.6355C28.6984 23.7532 28.529 24.4984 28.2581 25.1758C27.9871 25.8532 27.6145 26.4629 27.0387 27.0387C26.4629 27.6145 25.8532 27.9871 25.1758 28.2581C24.5323 28.4952 23.7532 28.6645 22.6355 28.7323C21.5177 28.8 21.1452 28.8 18.3 28.8C15.4548 28.8 15.0823 28.8 13.9645 28.7323C12.8468 28.6984 12.1016 28.529 11.4242 28.2581C10.7468 27.9871 10.1371 27.6145 9.56129 27.0387C8.98548 26.4629 8.6129 25.8532 8.34194 25.1758C8.10484 24.5323 7.93548 23.7532 7.86774 22.6355C7.8 21.5177 7.8 21.1452 7.8 18.3C7.8 15.4548 7.8 15.0823 7.86774 13.9645C7.90161 12.8468 8.07097 12.1016 8.34194 11.4242C8.6129 10.7468 8.98548 10.1371 9.56129 9.56129C10.1371 8.98548 10.7468 8.6129 11.4242 8.34194C12.0677 8.10484 12.8468 7.93548 13.9645 7.86774ZM12.9148 18.3003C12.9148 15.3197 15.3197 12.9148 18.3003 12.9148C21.281 12.9148 23.6858 15.3197 23.6858 18.3003C23.6858 21.281 21.281 23.6858 18.3003 23.6858C15.3197 23.6858 12.9148 21.281 12.9148 18.3003ZM14.8116 18.3003C14.8116 20.231 16.3697 21.789 18.3003 21.789C20.231 21.789 21.789 20.231 21.789 18.3003C21.789 16.3697 20.231 14.8116 18.3003 14.8116C16.3697 14.8116 14.8116 16.3697 14.8116 18.3003ZM23.8888 13.9649C24.5809 13.9649 25.142 13.4039 25.142 12.7117C25.142 12.0196 24.5809 11.4585 23.8888 11.4585C23.1966 11.4585 22.6355 12.0196 22.6355 12.7117C22.6355 13.4039 23.1966 13.9649 23.8888 13.9649Z" fill="white"/>
</svg>